# xmcd
#
# Track frame offsets:
#	150
#	17843
#	47708
#
# Disc length: 1200 seconds
#
# Revision: 3
# Processed by: cddbd v1.5.2PL0 Copyright (c) Steve Scherf et al.
# Submitted via: audiograbber 1.83.01
#
DISCID=1d04ae03
DTITLE=Alcazar - Love Life
DYEAR=2003
DGENRE=Pop
TTITLE0=Love Life (Original Version)
TTITLE1=Love Life (Extended Version)
TTITLE2=Love life (FL Rebirth Club Mix)
EXTD=YEAR: 2003
EXTT0=
EXTT1=
EXTT2=
PLAYORDER=
